<svg width="200" height="27" viewBox="0 0 200 27" fill="none" xmlns="http://www.w3.org/2000/svg">
<rect width="200" height="26.1935" fill="white"/>
<path d="M0.001291 21.531L3.38758 17.8085C4.97938 20.0553 6.97655 21.095 9.00729 21.095C10.8689 21.095 11.9869 20.1218 11.9869 18.5463C11.9869 16.9708 10.9373 16.2317 8.09326 15.0591C4.06406 13.4823 1.18643 11.7061 1.18643 7.5129C1.18643 3.31974 4.80897 0 9.81933 0C13.4754 0 16.0484 1.34145 17.9113 3.38752L14.6606 7.34538C13.611 6.00393 12.1547 5.13179 10.2596 5.13179C8.70261 5.13179 7.58461 5.97068 7.58461 7.21111C7.58461 8.45154 8.80331 9.08965 11.7494 10.2968C16.0148 11.9401 18.4187 14.0194 18.4187 18.3123C18.4187 23.1078 14.627 26.1935 9.41266 26.1935C4.94323 26.1935 1.76092 24.2485 0 21.5323L0.001291 21.531Z" fill="#1C59B5"/>
<path d="M48.3233 25.7561L46.6644 20.9607H37.3201L35.5592 25.7561H28.8551L39.3173 0.469299H44.9719L55.2986 25.7561H48.3246H48.3233ZM39.0462 16.2317H45.0055L43.7532 12.6101C43.1774 10.9337 42.6365 9.2904 42.1278 7.64716C41.5856 9.2904 41.0111 10.9337 40.4018 12.5769L39.0475 16.233L39.0462 16.2317Z" fill="#1C59B5"/>
<path d="M84.8817 0.469299H91.0101V25.7561H85.9313L73.1337 9.82622L73.2357 25.7561H67.0737V0.469299H72.2881L85.0857 16.2982L84.883 0.469299H84.8817Z" fill="#1C59B5"/>
<path d="M106.39 25.7561V0.469299H113.703C122.371 0.469299 128.431 4.69443 128.431 13.1127C128.431 21.531 122.472 25.7561 114.11 25.7561H106.391H106.39ZM112.654 20.2893H114.008C118.816 20.2893 121.998 17.8072 121.998 13.1127C121.998 8.41827 119.289 6.10366 114.008 6.10366H112.654V20.2893Z" fill="#1C59B5"/>
<path d="M140.075 13.0795C140.075 5.60112 146.304 0.0332642 153.82 0.0332642C161.336 0.0332642 167.498 5.5666 167.498 13.146C167.498 20.7254 161.269 26.1922 153.718 26.1922C146.167 26.1922 140.073 20.9274 140.073 13.0795H140.075ZM161.031 13.146C161.031 8.98736 157.951 5.76737 153.786 5.76737C149.621 5.76737 146.541 9.02061 146.541 13.1115C146.541 17.4376 149.825 20.4556 153.719 20.4556C157.884 20.4556 161.033 17.3366 161.033 13.1447L161.031 13.146Z" fill="#1C59B5"/>
<path d="M177.79 25.7561V25.6896L189.742 5.97066H179.889V0.469299H200V0.535796L188.15 20.155H199.322V25.7561H177.79Z" fill="#1C59B5"/>
</svg>
